# xmcd CD database file
#
# Track frame offsets:
#	150
#	17625
#	34690
#	53340
#	75835
#	94480
#	121122
#	132880
#	152217
#	175291
#	194255
#	220467
#	240656
#
# Disc length: 3606 seconds
#
# Revision: 0
# Processed by: cddbd v1.5.2PL0 Copyright (c) Steve Scherf et al.
# Submitted via: CDex 1.51
#
DISCID=a10e140d
DTITLE=David Linx - Here Rivers Join
DYEAR=1900
DGENRE=Jazz
TTITLE0=You'd be so Nice to Come Home To
TTITLE1=Sister Ruth
TTITLE2=People Will Try Again
TTITLE3=Where Rivers Join
TTITLE4=Let Me Be the One (with Viktor Lazlo)
TTITLE5=Moon Over Paris
TTITLE6=Mississippi Chaser
TTITLE7=You Can Let Me Go
TTITLE8=Sweet Lorraine
TTITLE9=When Morning Comes
TTITLE10=Speak Low
TTITLE11=Longing
TTITLE12=Hibble and Hydes
EXTD=
EXTT0=
EXTT1=
EXTT2=
EXTT3=
EXTT4=
EXTT5=
EXTT6=
EXTT7=
EXTT8=
EXTT9=
EXTT10=
EXTT11=
EXTT12=
PLAYORDER=
